HIERARCHY
ROOT root     
{
	OFFSET 0.0000 0.0000 0.0000
	CHANNELS 6 Xposition Yposition Zposition Zrotation Yrotation Xrotation
	JOINT pelvis   
	{
		OFFSET 0.0000 0.0000 0.0000
		CHANNELS 3 Zrotation Yrotation Xrotation
		JOINT thorax   
		{
			OFFSET 0.0000 23.0750 -5.0000
			CHANNELS 3 Zrotation Yrotation Xrotation
			JOINT rclavicle
			{
				OFFSET 0.0000 28.0009 0.0000
				CHANNELS 3 Zrotation Yrotation Xrotation
				JOINT rhumerus 
				{
					OFFSET -18.5725 5.5939 0.0000
					CHANNELS 3 Zrotation Yrotation Xrotation
					JOINT rradius  
					{
						OFFSET -24.8459 0.0000 0.0000
						CHANNELS 3 Zrotation Yrotation Xrotation
						JOINT rhand    
						{
							OFFSET -24.5477 0.0000 0.0000
							CHANNELS 3 Zrotation Yrotation Xrotation
							End Site
							{
								OFFSET -8.1826 0.0000 0.0000
							}
						}
					}
				}
			}
			JOINT lclavicle
			{
				OFFSET 0.0000 28.0009 0.0000
				CHANNELS 3 Zrotation Yrotation Xrotation
				JOINT lhumerus 
				{
					OFFSET 18.5725 5.5939 0.0000
					CHANNELS 3 Zrotation Yrotation Xrotation
					JOINT lradius  
					{
						OFFSET 24.8459 0.0000 0.0000
						CHANNELS 3 Zrotation Yrotation Xrotation
						JOINT lhand    
						{
							OFFSET 24.5477 0.0000 0.0000
							CHANNELS 3 Zrotation Yrotation Xrotation
							End Site
							{
								OFFSET 8.1826 0.0000 0.0000
							}
						}
					}
				}
			}
			JOINT head     
			{
				OFFSET 0.0000 35.2030 0.0000
				CHANNELS 3 Zrotation Yrotation Xrotation
				End Site
				{
					OFFSET 0.0000 11.7343 0.0000
				}
			}
		}
		JOINT rfemur   
		{
			OFFSET -8.2817 0.0000 0.0000
			CHANNELS 3 Zrotation Yrotation Xrotation
			JOINT rtibia   
			{
				OFFSET 0.0000 -43.3627 0.0000
				CHANNELS 3 Zrotation Yrotation Xrotation
				JOINT rfoot    
				{
					OFFSET 0.0000 -38.2947 0.0000
					CHANNELS 3 Zrotation Yrotation Xrotation
					JOINT rtoes    
					{
						OFFSET 0.0000 0.0000 16.6054
						CHANNELS 3 Zrotation Yrotation Xrotation
						End Site
						{
							OFFSET 0.0000 0.0000 5.5351
						}
					}
				}
			}
		}
		JOINT lfemur   
		{
			OFFSET 8.2817 0.0000 0.0000
			CHANNELS 3 Zrotation Yrotation Xrotation
			JOINT ltibia   
			{
				OFFSET 0.0000 -43.3627 0.0000
				CHANNELS 3 Zrotation Yrotation Xrotation
				JOINT lfoot    
				{
					OFFSET 0.0000 -38.2947 0.0000
					CHANNELS 3 Zrotation Yrotation Xrotation
					JOINT ltoes    
					{
						OFFSET 0.0000 0.0000 16.6054
						CHANNELS 3 Zrotation Yrotation Xrotation
						End Site
						{
							OFFSET 0.0000 0.0000 5.5351
						}
					}
				}
			}
		}
	}
}
MOTION
Frames: 23
Frame Time: .0333333
25.147 79.139 4.0425 176.172 -82.9384 -141.168 0 -0 0 -5.20632 -10.8892 16.4555 22.5424 -16.4922 1.494e-05 52.2738 -3.92468 25.7934 -180 60.2269 -180 -19.353 5.40795 -0.922819 -15.2394 9.80371 8.82995e-05 -59.8739 8.52977 3.01571 -180 -57.4636 180 10.6522 -1.086 -0.101199 6.31814 5.0441 -26.8756 5.94761 -14.3952 -64.8692 -0 -0 50.3834 4.71537e-07 -2.31268 -1.42401 0.0575006 -5.1635e-08 -66.6388 -16.8282 21.9747 -66.2749 -0 -0 52.5834 -2.27537e-05 13.4573 -7.59993 -1.81262 -1.66994e-05 -44.4202 
25.049 79.212 4.077 177.472 -82.6897 -142.583 0 -0 0 -4.81272 -11.4898 16.2422 22.7227 -16.6416 -2.49923e-05 52.221 -3.7879 25.8794 -180 60.351 -180 -19.324 5.3617 -0.913498 -14.9367 9.53147 1.05854e-05 -59.9113 8.00488 2.3118 180 -58.0508 180 10.9672 -0.833097 -0.0799986 6.51957 5.12757 -26.8395 5.96233 -14.2739 -64.5453 -0 -0 50.0561 -5.55454e-08 -2.12215 -1.28045 0.0474002 -3.08469e-07 -66.7287 -16.7976 22.2701 -66.0564 -0 -0 52.467 -1.76812e-05 13.5119 -7.63434 -1.82841 5.89104e-06 -44.4063 
24.941 79.296 4.1125 178.69 -82.4474 -143.919 0 -0 0 -4.38982 -12.1194 15.9975 22.8878 -16.793 0.000225815 52.1843 -3.64346 25.9795 -180 60.4773 -180 -19.2906 5.32089 -0.90493 -14.5872 9.26562 -6.55531e-06 -59.8375 7.36268 1.60689 180 -58.6599 180 11.328 -0.513101 -0.0508993 6.69559 5.23314 -26.8172 5.96589 -14.1469 -64.1867 -0 -0 49.6927 -2.86114e-07 -1.94825 -1.12119 0.0381003 4.88618e-08 -66.8223 -16.7664 22.5757 -65.8053 -0 -0 52.3157 -1.17331e-05 13.5503 -7.65634 -1.83913 -1.27581e-05 -44.4 
24.824 79.392 4.1494 179.822 -82.2058 -145.182 0 -0 0 -3.93788 -12.7736 15.7239 23.0341 -16.9452 -1.36217e-05 52.1728 -3.50086 26.0921 -180 60.6018 -180 -19.2475 5.28902 -0.897405 -14.1883 9.0147 -4.09494e-05 -59.6347 6.58084 0.905443 180 -59.2995 -180 11.7111 -0.1242 -0.0127007 6.84144 5.36101 -26.8036 5.95674 -14.0181 -63.7914 -0 -0 49.2955 -5.8595e-07 -1.79188 -0.94601 0.0296004 -9.26358e-08 -66.92 -16.7343 22.8848 -65.524 -0 -0 52.1262 -1.67283e-05 13.577 -7.66448 -1.84483 -3.33461e-06 -44.3992 
24.698 79.498 4.1877 -179.166 -81.9679 -146.335 0 -0 0 -3.4647 -13.4487 15.4228 23.1605 -17.0981 8.68748e-05 52.1807 -3.36066 26.217 -180 60.7238 -180 -19.2018 5.26218 -0.890792 -13.7322 8.77852 5.19447e-08 -59.3009 5.65132 0.19689 180 -59.9734 180 12.0696 0.321503 0.0339998 6.96069 5.50961 -26.7896 5.93111 -13.8884 -63.3632 -0 -0 48.8668 1.13791e-07 -1.6533 -0.755813 0.0217997 -5.13256e-08 -67.0202 -16.7005 23.1932 -65.2055 -0 -0 51.8991 3.22448e-06 13.5953 -7.65723 -1.84573 -1.32476e-05 -44.4053 
24.564 79.615 4.2284 -178.26 -81.7408 -147.393 0 -0 0 -2.96569 -14.1425 15.0999 23.2547 -17.2466 0.000183146 52.2289 -3.23815 26.3449 -180 60.8423 -180 -19.1422 5.25213 -0.886208 -13.2259 8.57343 4.0883e-05 -58.8072 4.53748 -0.509994 -180 -60.7013 180 12.3931 0.8258 0.0897029 7.04335 5.67487 -26.7713 5.88727 -13.7588 -62.8991 -0 -0 48.4058 -5.12291e-08 -1.5317 -0.550101 0.0146996 -1.03206e-07 -67.1279 -16.6607 23.4949 -64.8479 -0 -0 51.6341 -4.14921e-05 13.6137 -7.63264 -1.84233 -1.35833e-05 -44.4184 
24.424 79.742 4.2714 -177.502 -81.5056 -148.316 0 -0 0 -2.46272 -14.8401 14.7527 23.3365 -17.4006 -0.000230494 52.2868 -3.12271 26.4851 -180 60.9495 -180 -19.0878 5.24207 -0.881907 -12.6532 8.37937 3.18706e-05 -58.1826 3.26625 -1.2587 -180 -61.4828 180 12.6114 1.35041 0.149201 7.10759 5.85219 -26.736 5.81927 -13.6302 -62.4061 -0 -0 47.918 -1.01041e-07 -1.4266 -0.330896 0.0082 -8.23627e-08 -67.2355 -16.6211 23.7861 -64.4508 -0 -0 51.3284 -2.2065e-05 13.633 -7.58964 -1.83467 1.05573e-05 -44.4369 
24.277 79.878 4.3176 -176.872 -81.2851 -149.122 0 -0 0 -1.94905 -15.5395 14.3893 23.3868 -17.5501 -3.26671e-06 52.3815 -3.03065 26.6226 -180 61.0531 -180 -19.0217 5.2481 -0.879875 -12.03 8.21887 1.69721e-05 -57.3845 1.79163 -2.0362 -180 -62.3462 180 12.7431 1.90048 0.212203 7.14288 6.03428 -26.6842 5.72752 -13.5034 -61.8836 -0 -0 47.4058 4.51621e-08 -1.33685 -0.0972999 0.00230001 4.23187e-09 -67.3509 -16.5747 24.0597 -64.0122 -0 -0 50.9857 1.55288e-05 13.6614 -7.52709 -1.82367 -8.59437e-08 -44.4623 
24.126 80.022 4.3669 -176.382 -81.0578 -149.802 0 -0 0 -1.44288 -16.2293 14.0086 23.4212 -17.704 0.000194051 52.4857 -2.95343 26.7634 -180 61.1438 -180 -18.9604 5.25828 -0.878703 -11.3496 8.0716 -7.12535e-06 -56.436 0.143944 -2.88588 180 -63.3063 -180 12.7547 2.44286 0.273109 7.16477 6.21533 -26.6058 5.60882 -13.3787 -61.3353 -0 -0 46.8703 -6.41337e-08 -1.26111 0.149 -0.00330001 7.82431e-09 -67.4665 -16.5261 24.3154 -63.532 -0 -0 50.6037 -2.59815e-05 13.7025 -7.44436 -1.80929 5.53535e-06 -44.4917 
23.97 80.174 4.4198 -176.049 -80.8331 -150.335 0 -0 0 -0.955647 -16.8985 13.6118 23.449 -17.8636 6.72059e-05 52.5913 -2.89153 26.9033 -180 61.2242 -180 -18.9045 5.26982 -0.877971 -10.6141 7.92331 9.00084e-06 -55.3356 -1.65711 -3.83449 180 -64.37 180 12.6561 2.96465 0.328798 7.1817 6.3877 -26.4988 5.45964 -13.254 -60.7677 -0 -0 46.3166 -1.6794e-07 -1.19786 0.407097 -0.00850001 1.57025e-08 -67.5825 -16.4776 24.5505 -63.0113 -0 -0 50.1842 -9.8203e-06 13.7583 -7.34194 -1.7921 -1.20974e-05 -44.5206 
23.813 80.332 4.4765 -175.831 -80.6061 -150.764 0 -0 0 -0.481692 -17.5468 13.2098 23.4541 -18.0238 1.91218e-05 52.7192 -2.85165 27.0356 -180 61.2961 -180 -18.841 5.29656 -0.879383 -9.85142 7.80764 1.15453e-05 -54.0398 -3.66164 -4.85909 180 -65.5826 -180 12.5181 3.48683 0.38251 7.18542 6.54674 -26.3685 5.28396 -13.1277 -60.1786 -0 -0 45.7451 -2.96335e-07 -1.14675 0.678402 -0.0135999 2.00088e-08 -67.7039 -16.4224 24.7635 -62.4505 -0 -0 49.7326 3.08151e-05 13.8337 -7.21999 -1.77273 -1.50931e-05 -44.5515 
23.654 80.495 4.5369 -175.749 -80.3622 -151.073 0 -0 0 -0.0402108 -18.1601 12.7992 23.4573 -18.1898 1.26072e-05 52.8356 -2.82402 27.1633 -180 61.3557 -180 -18.7845 5.32336 -0.881178 -9.05647 7.67971 -5.2684e-06 -52.5737 -5.79079 -6.01219 -180 -66.9392 180 12.3468 3.99602 0.432403 7.19573 6.68737 -26.214 5.07911 -12.9986 -59.5749 -0 -0 45.1591 -2.41809e-08 -1.10571 0.9605 -0.0184997 7.23302e-08 -67.8233 -16.3694 24.955 -61.8584 -0 -0 49.2481 -1.85358e-05 13.9299 -7.08008 -1.75097 1.62621e-05 -44.577 
23.495 80.662 4.601 -175.769 -80.1167 -151.282 0 -0 0 0.366848 -18.738 12.3876 23.456 -18.3604 -0.00021841 52.9424 -2.80888 27.2825 -180 61.4049 -180 -18.7307 5.35387 -0.883602 -8.24668 7.54596 -1.28412e-06 -50.916 -8.04132 -7.29069 -180 -68.4599 180 12.2062 4.51526 0.482989 7.2127 6.80763 -26.0407 4.84798 -12.8633 -58.9614 -0 -0 44.5608 1.85874e-07 -1.0741 1.25335 -0.0234999 -1.23954e-07 -67.9438 -16.316 25.1265 -61.2354 -0 -0 48.7342 -3.29828e-05 14.0455 -6.92399 -1.72743 -9.34288e-06 -44.5957 
23.337 80.832 4.6685 -175.874 -79.8629 -151.412 0 -0 0 0.736209 -19.279 11.9765 23.4506 -18.5323 -7.6657e-05 53.0365 -2.80427 27.3932 -180 61.4438 -180 -18.6791 5.38642 -0.886493 -7.43356 7.39915 -9.83813e-07 -49.0574 -10.3824 -8.70317 180 -70.1592 -180 12.1399 5.06456 0.538885 7.24077 6.9069 -25.8558 4.59392 -12.7196 -58.3422 -0 -0 43.9515 4.7024e-07 -1.05051 1.55625 -0.0285009 1.58709e-07 -68.0608 -16.2649 25.2809 -60.5915 -0 -0 48.1959 -3.66021e-05 14.1795 -6.75422 -1.70196 1.87449e-05 -44.6028 
23.182 81.004 4.7393 -176.046 -79.5984 -151.479 0 -0 0 1.06611 -19.7834 11.572 23.4438 -18.7027 -3.2492e-05 53.1134 -2.80904 27.4952 -180 61.4762 -180 -18.6295 5.42066 -0.889782 -6.62764 7.23676 -1.2124e-06 -46.9836 -12.7863 -10.2545 180 -72.045 -180 12.1835 5.6637 0.604936 7.28193 6.98753 -25.6701 4.32059 -12.5667 -57.7186 -0 -0 43.3326 -2.51199e-07 -1.0333 1.86821 -0.0337 -5.74104e-07 -68.1755 -16.2157 25.4201 -59.9311 -0 -0 47.6402 -1.1513e-05 14.3298 -6.57332 -1.67505 -2.83445e-05 -44.597 
23.03 81.176 4.813 -176.259 -79.3159 -151.507 0 -0 0 1.35611 -20.2531 11.1782 23.4316 -18.8696 9.94163e-05 53.1704 -2.82189 27.5868 -180 61.4948 -180 -18.5838 5.45511 -0.893125 -5.83395 7.05419 2.07263e-07 -44.6944 -15.2171 -11.9516 180 -74.1234 -180 12.345 6.32116 0.684327 7.33821 7.05325 -25.4928 4.03309 -12.403 -57.0991 -0 -0 42.7071 -3.90862e-07 -1.0209 2.18822 -0.0390002 8.70896e-09 -68.2859 -16.1711 25.548 -59.2624 -0 -0 47.0696 -1.31396e-05 14.4938 -6.38391 -1.6464 -4.31964e-06 -44.5716 
22.882 81.348 4.8897 -176.495 -79.0266 -151.508 0 -0 0 1.60712 -20.6933 10.8003 23.4144 -19.028 -0.000210305 53.2068 -2.84423 27.6708 -180 61.5093 -180 -18.5391 5.48897 -0.896504 -5.05377 6.85103 1.09646e-08 -42.1846 -17.6424 -13.8 180 -76.4103 -180 12.6148 7.03197 0.778202 7.41089 7.10978 -25.3325 3.73786 -12.2316 -56.4865 -0 -0 42.0765 -6.57744e-08 -1.0108 2.51501 -0.0443992 -3.90528e-08 -68.3902 -16.1318 25.6675 -58.5936 -0 -0 46.4919 -1.93022e-05 14.6671 -6.18891 -1.61618 9.1059e-06 -44.527 
22.74 81.518 4.969 -176.735 -78.729 -151.498 0 -0 0 1.82138 -21.1106 10.4413 23.3898 -19.1707 -0.000107193 53.2202 -2.8767 27.7443 -180 61.5122 -180 -18.4992 5.52063 -0.899746 -4.27982 6.62273 -1.68546e-06 -39.4695 -20.0216 -15.8123 180 -78.9201 -180 12.9512 7.76853 0.883084 7.49961 7.16324 -25.1957 3.43914 -12.0516 -55.8864 -0 -0 41.4435 -6.77463e-08 -1.0005 2.84723 -0.0497008 2.79363e-07 -68.4897 -16.1002 25.7811 -57.9351 -0 -0 45.9111 1.23903e-05 14.8452 -5.99061 -1.58459 -1.18799e-05 -44.462 
22.604 81.684 5.0511 -176.975 -78.4237 -151.483 0 -0 0 2.0023 -21.5107 10.1054 23.3524 -19.2941 0.000159552 53.2152 -2.92157 27.8092 -180 61.5035 -180 -18.4615 5.55059 -0.902791 -3.50394 6.37598 7.39794e-06 -36.5592 -22.3311 -17.9903 -180 -81.6696 180 13.3025 8.48431 0.991112 7.60341 7.22089 -25.0905 3.14382 -11.8689 -55.3017 -0 -0 40.8099 8.04749e-07 -0.987098 3.18385 -0.0547989 2.34913e-09 -68.5835 -16.0772 25.8901 -57.2932 -0 -0 45.3344 -1.38664e-05 15.0243 -5.79172 -1.55147 1.95317e-05 -44.3772 
22.476 81.847 5.1362 -177.197 -78.1129 -151.471 0 -0 0 2.15376 -21.8999 9.79479 23.3028 -19.3943 -6.8773e-05 53.1918 -2.9818 27.8657 -180 61.4845 -180 -18.4292 5.57818 -0.905572 -2.71143 6.11454 4.61859e-06 -33.4804 -24.5409 -20.3396 180 -84.6819 180 13.5958 9.112 1.08848 7.72254 7.28973 -25.0233 2.85693 -11.6861 -54.7392 -0 -0 40.1789 5.90074e-07 -0.9677 3.52359 -0.0595004 -8.71377e-07 -68.6728 -16.0656 25.9998 -56.6761 -0 -0 44.7669 1.13706e-05 15.199 -5.59417 -1.51701 6.54318e-06 -44.2745 
22.356 82.005 5.2243 -177.396 -77.8008 -151.469 0 -0 0 2.28033 -22.2852 9.51028 23.2377 -19.4644 -2.99655e-05 53.1495 -3.05822 27.9139 -180 61.4542 -180 -18.4033 5.6027 -0.908327 -1.8833 5.84282 -8.99203e-07 -30.2711 -26.6282 -22.8598 180 -88.0002 -180 13.7577 9.57246 1.15744 7.85645 7.37586 -24.9937 2.58269 -11.5057 -54.2059 -0 -0 39.5536 4.67076e-07 -0.939706 3.86543 -0.0633998 -3.48072e-07 -68.756 -16.0678 26.109 -56.0933 -0 -0 44.2145 -2.66922e-05 15.3655 -5.39999 -1.48137 -1.88534e-05 -44.1569 
22.244 82.158 5.3159 -177.579 -77.4891 -151.461 0 -0 0 2.38473 -22.669 9.24955 23.1571 -19.5079 -4.54671e-07 53.0878 -3.15003 27.955 -180 61.4115 -180 -18.3839 5.62256 -0.910594 -0.997793 5.55332 3.90156e-07 -26.9814 -28.5552 -25.5523 7.2501e-06 -88.3833 -7.05037e-06 13.7135 9.79967 1.18124 8.00547 7.48197 -25.0025 2.32349 -11.3327 -53.7063 -0 -0 38.9385 -4.87943e-07 -0.90019 4.2086 -0.0661001 4.01139e-07 -68.8352 -16.0887 26.2206 -55.5518 -0 -0 43.6791 2.75621e-05 15.5183 -5.20988 -1.44445 -2.36987e-05 -44.0276 
22.144 82.304 5.4106 -177.712 -77.1772 -151.483 0 -0 0 2.47814 -23.0634 9.01841 23.053 -19.5125 -5.34199e-06 53.0184 -3.26185 27.9886 -180 61.3565 -180 -18.3656 5.64346 -0.912998 -0.0517988 5.31072 2.11363e-08 -23.6345 -30.3925 -28.3814 0 -84.4078 0 13.4483 9.68499 1.14457 8.16648 7.62036 -25.0538 2.08632 -11.1657 -53.2437 -0 -0 38.3333 -5.65556e-07 -0.850097 4.55317 -0.0675 2.08671e-07 -68.9142 -16.1258 26.3386 -55.0609 -0 -0 43.1729 1.16428e-05 15.655 -5.02789 -1.40692 -1.10984e-05 -43.8886 
